<svg xmlns="http://www.w3.org/2000/svg" viewBox="0 0 854.23351 107.39502">
    <defs><style>.cls-1{fill:none;stroke:#fff;stroke-miterlimit:10;stroke-width:3px;}</style></defs>
    <title>Asset 1</title>
                <g id="letter">
                    <path class="cls-1" d="M776.83605,104.24561V3.1499h14.25l32.39844,51.14795A286.24046,286.24046,0,0,1,841.6339,87.146l.2998-.15039c-1.20019-13.499-1.5-25.79834-1.5-41.54786V3.1499h12.29981V104.24561h-13.2002L807.43468,52.94775a321.04319,321.04319,0,0,1-18.89941-33.74853l-.44922.1499c.75,12.74951,1.0498,24.89893,1.0498,41.69824v43.19825Z"/>
                    <path class="cls-1" d="M701.38585,72.44678l-10.5,31.79883h-13.499L711.73546,3.1499h15.749l34.499,101.09571H748.03429l-10.7998-31.79883Zm33.14844-10.19922-9.89941-29.09912c-2.25-6.59961-3.75-12.59961-5.25-18.44922h-.29981c-1.5,6-3.15039,12.14941-5.09961,18.29932l-9.89941,29.249Z"/>
                    <path class="cls-1" d="M651.1339,59.84717c-.75-14.09912-1.64941-31.04834-1.5-43.64795h-.44922c-3.45019,11.84961-7.65039,24.44873-12.75,38.39844L618.58605,103.645h-9.90039L592.337,55.49756c-4.7998-14.24951-8.8496-27.29883-11.70019-39.29834H580.337c-.2998,12.59961-1.0498,29.54883-1.95019,44.69824l-2.69922,43.34815H563.23742L570.28722,3.1499h16.64941l17.25,48.89795c4.19922,12.44922,7.64942,23.54834,10.19922,34.04834h.4502c2.5498-10.19922,6.14941-21.29883,10.64941-34.04834l17.999-48.89795H660.1339l6.2998,101.09571h-12.75Z"/>
                    <path class="cls-1" d="M481.93859,3.1499V62.99707c0,22.64893,10.0498,32.24854,23.54883,32.24854,15,0,24.5996-9.89942,24.5996-32.24854V3.1499h13.19922V62.09717c0,31.04883-16.34961,43.79785-38.248,43.79785-20.69922,0-36.29883-11.84961-36.29883-43.19775V3.1499Z"/>
                    <path class="cls-1" d="M384.13976,3.1499V45.44775H433.0382V3.1499h13.19922V104.24561H433.0382V56.84766H384.13976v47.398H371.09V3.1499Z"/>
                    <path class="cls-1" d="M295.34093,88.34619a46.24514,46.24514,0,0,0,23.39893,6.59961c13.34961,0,21.14941-7.0498,21.14941-17.249,0-9.4502-5.3999-14.84961-19.04932-20.09912-16.49951-5.8501-26.69873-14.39942-26.69873-28.64893C294.14122,13.19922,307.19054,1.5,326.83947,1.5c10.34961,0,17.84961,2.3999,22.34912,4.94971L345.589,17.09912a40.266,40.266,0,0,0-19.19922-4.7998c-13.79932,0-19.04932,8.24951-19.04932,15.14941,0,9.44971,6.14991,14.09961,20.09912,19.499,17.09912,6.6001,25.79883,14.84961,25.79883,29.69922,0,15.59864-11.54931,29.09864-35.39844,29.09864-9.74951,0-20.39892-2.85059-25.79882-6.4502Z"/>
                    <path class="cls-1" d="M277.1881,99.74561a94.18813,94.18813,0,0,1-31.04834,5.5498c-15.29932,0-27.89893-3.90039-37.79883-13.34961-8.69971-8.39941-14.09912-21.89941-14.09912-37.648.1499-30.14892,20.84912-52.19824,54.74756-52.19824,11.69971,0,20.84912,2.55029,25.19922,4.6499l-3.14991,10.64942c-5.3999-2.39991-12.14941-4.34961-22.34912-4.34961-24.59912,0-40.64843,15.29931-40.64843,40.64843,0,25.64844,15.44922,40.79786,38.99853,40.79786,8.54932,0,14.39942-1.2002,17.39942-2.7002V61.64746H243.88976V51.148H277.1881Z"/>
                    <path class="cls-1" d="M101.54308,104.24561V3.1499h14.24951l32.39893,51.14795A286.1567,286.1567,0,0,1,166.34044,87.146l.3003-.15039c-1.2002-13.499-1.5-25.79834-1.5-41.54786V3.1499h12.29931V104.24561H164.24083L132.1422,52.94775a320.86861,320.86861,0,0,1-18.89941-33.74853l-.4502.1499c.75,12.74951,1.05029,24.89893,1.05029,41.69824v43.19825Z"/>
                    <path class="cls-1" d="M26.09288,72.44678,15.59337,104.24561H2.09386L36.44249,3.1499h15.749L86.69005,104.24561H72.74083L61.941,72.44678ZM59.24132,62.24756,49.34191,33.14844c-2.25-6.59961-3.75-12.59961-5.25-18.44922H43.7921c-1.5,6-3.1499,12.14941-5.10009,18.29932l-9.89942,29.249Z"/>
                </g>
</svg>