<svg xmlns="http://www.w3.org/2000/svg" viewBox="0 0 994.82956 350.75045"><defs><style>.cls-1{opacity:0.7;}.cls-13,.cls-2{opacity:0.8;}.cls-13,.cls-3{fill:#a7ff82;}.cls-4{fill:#82ff4d;}.cls-5{fill:#68ff29;}.cls-6{fill:#63ff22;}.cls-7{fill:#b4ff95;}.cls-8{fill:#74ff39;}.cls-9{fill:#78ff40;}.cls-10{fill:#99ff6e;}.cls-11{fill:#69ff2a;}.cls-12{fill:#6dff30;}.cls-14{fill:#7cff45;}.cls-15{fill:#70ff34;}.cls-16{fill:#83ff50;}.cls-17{fill:#71ff36;}.cls-18{fill:#6cff2e;}.cls-19{fill:#66ff26;}.cls-20{fill:#8aff59;}.cls-21{fill:#67ff27;}.cls-22{fill:none;stroke:#fff;stroke-miterlimit:10;stroke-width:2px;}</style></defs><title>angshu-anim</title><g id="Layer_2" data-name="Layer 2"><g id="Layer_1-2" data-name="Layer 1"><g id="brush2" class="cls-1"><g class="cls-2"><path class="cls-3" d="M424.81387,280.02387a54.90835,54.90835,0,0,1-5.7185-13.936l-4.62659-3.108,9.99884,2.63275c9.01471,1.61286,19.20807,2.83741,28.97339,4.30561,9.76489,1.48187,19.10226,3.17761,26.40335,5.67-4.34366-.51361-9.5307-.69971-14.47052-.82947-1.63773-.04138-3.26273-.08239-4.81543-.12164-3.09592-.08136-5.91678-.17682-8.14639-.36926l1.34707-.36511-10.11157,2.55657-10.03726-.43188,10.03726.43188-18.83365,3.56458"/><path class="cls-3" d="M717.77426,278.43018l-.42365-.12,2.43354-.953c9.42737-.74072,18.8587-1.51324,27.65381-2.86175a212.88551,212.88551,0,0,1,33.32605-.79694q3.45684.18714,6.97137.47705l-14.22852,2.45075-1.37622-.075c-19.85711-1.02514-36.30749,2.238-54.35638,1.87891"/><path class="cls-4" d="M786.8732,265.11573c10.789-.8122,22.24249-1.21558,33.69232-1.56763l-.10083,1.798c-6.32483-.05719-13.09412.52637-19.90289.15149-1.87152-.10125-3.74872-.27136-5.61432-.54541l1.31665.47126-9.39093-.30768"/><polyline class="cls-4" points="810.912 267.819 821.035 267.181 822.35 267.657 810.912 267.819"/><polyline class="cls-4" points="713.372 313.693 710.732 312.965 714.05 313.526 713.372 313.693"/><polyline class="cls-4" points="815.224 334.96 810.619 333.699 815.224 334.96"/><polyline class="cls-4" points="810.619 333.699 809.952 333.663 810.619 333.699"/><polyline class="cls-4" points="879.335 281.22 876.05 280.02 879.335 281.22"/><polyline class="cls-4" points="835.46 331.71 834.145 331.235 835.46 331.71"/><polyline class="cls-4" points="589.701 262.85 582.262 260.213 589.701 262.85"/><polyline class="cls-4" points="710.732 312.965 705.469 311.112 710.732 312.965"/><polyline class="cls-4" points="870.895 276.304 866.25 275.422 870.244 276.064 870.895 276.304"/><polyline class="cls-4" points="885.283 282.781 879.335 281.22 883.314 282.062 885.283 282.781"/><polyline class="cls-4" points="842.875 273.038 850.3 272.461 851.629 272.738 850.3 272.461 851.629 272.738 851.617 272.938 842.875 273.038"/><path class="cls-4" d="M879.48147,278.82532l-8.58624-2.52154-4.64484-.88184,3.99347.642a261.3529,261.3529,0,0,0-27.86615-6.05914l-1.39538.92175L854.34219,272.3l-4.04211.16138,1.329.27661,2.666.36041-2.67767-.16058,13.27209,2.80322L859.61484,274.02l6.61157,1.8017-1.33692-.08063,5.92139,1.95966,8.67059,1.12463m-13.25506-3.00366,1.34027.08081-1.34027-.08081"/><polyline class="cls-5" points="870.244 276.064 866.25 275.422 870.244 276.064"/><polyline class="cls-5" points="851.629 272.738 850.3 272.461 851.629 272.738"/><polyline class="cls-4" points="895.294 283.81 891.974 283.198 887.33 282.304 873.446 278.661 870.811 277.701 879.481 278.825 895.294 283.81"/><polyline class="cls-4" points="854.295 273.098 851.617 272.938 851.629 272.738 854.295 273.098"/><polyline class="cls-5" points="854.295 273.098 851.617 272.938 854.295 273.098"/><polyline class="cls-4" points="896.621 284.093 894.003 283.789 891.974 283.198 895.294 283.81 896.621 284.093"/><polyline class="cls-4" points="894.615 283.966 894.003 283.789 894.615 283.966"/><polyline class="cls-4" points="892.838 283.654 885.283 282.781 889.299 283.028 892.838 283.654"/><polyline class="cls-5" points="851.629 272.738 850.3 272.461 851.629 272.738"/><polyline class="cls-4" points="894.615 283.966 892.838 283.654 894.615 283.966"/><polyline class="cls-4" points="894.003 283.789 892.838 283.654 889.299 283.028 887.33 282.304 891.974 283.198 887.33 282.304 891.974 283.198 894.003 283.789"/><polyline class="cls-5" points="894.615 283.966 892.838 283.654 894.003 283.789 894.615 283.966"/><polyline class="cls-5" points="892.838 283.654 889.299 283.028 892.838 283.654"/><polyline class="cls-5" points="891.974 283.198 887.33 282.304 891.974 283.198"/><polyline class="cls-4" points="889.299 283.028 885.283 282.781 883.314 282.062 889.299 283.028"/><polyline class="cls-5" points="885.283 282.781 883.314 282.062 885.283 282.781"/><polyline class="cls-5" points="889.299 283.028 885.283 282.781 889.299 283.028"/><polyline class="cls-4" points="889.299 283.028 883.314 282.062 880.042 280.662 886.66 282.264 887.33 282.304 889.299 283.028"/><polyline class="cls-5" points="889.299 283.028 883.314 282.062 889.299 283.028"/><polyline class="cls-5" points="867.567 275.902 866.226 275.822 867.567 275.902"/><polyline class="cls-4" points="866.226 275.822 864.889 275.741 859.615 274.02 866.226 275.822"/><polyline class="cls-5" points="866.226 275.822 864.889 275.741 866.226 275.822"/><polyline class="cls-5" points="864.889 275.741 859.615 274.02 864.889 275.741"/><polyline class="cls-4" points="873.446 278.661 869.465 277.82 870.811 277.701 873.446 278.661"/><polyline class="cls-4" points="887.33 282.304 886.66 282.264 873.446 278.661 887.33 282.304"/><polyline class="cls-5" points="887.33 282.304 886.66 282.264 887.33 282.304 886.66 282.264 887.33 282.304"/><polyline class="cls-6" points="887.33 282.304 886.66 282.264 887.33 282.304"/><polyline class="cls-4" points="830.194 318.588 820.3 316.019 831.541 318.465 830.194 318.588"/><polyline class="cls-4" points="825.481 319.12 816.319 315.39 828.164 318.873 825.481 319.12"/><path class="cls-4" d="M817.796,324.89045c-9.32123-.7378-17.98071-1.38416-25.21967-3.58472l12.62964,1.4845-.66754-.03614,13.25757,2.13636"/><polyline class="cls-4" points="817.796 324.89 804.538 322.754 805.206 322.79 817.796 324.89"/><polyline class="cls-5" points="817.796 324.89 804.538 322.754 817.796 324.89"/><polyline class="cls-4" points="822.799 319.167 819.52 317.978 825.481 319.12 822.799 319.167"/><polyline class="cls-4" points="850.193 319.936 846.214 319.304 850.193 319.936"/><path class="cls-7" d="M986.6694,322.15558l3.37677-.36609,4.78339-1.27038a194.32573,194.32573,0,0,0-23.15216-4.42029l2.61248.9856c-9.32489-.849-15.87329-3.11805-23.84423-4.24073,11.18682,3.13282,25.78,5.38953,36.22375,9.31189"/><polyline class="cls-4" points="936.314 313.706 933.655 313.331 936.314 313.706"/><polyline class="cls-4" points="971.677 316.099 967.687 315.622 971.677 316.099"/><polyline class="cls-4" points="940.275 314.573 936.314 313.706 940.275 314.573"/><polyline class="cls-4" points="849.178 314.466 845.197 313.838 841.261 312.411 849.201 314.067 849.178 314.466"/><polyline class="cls-4" points="849.155 314.866 845.197 313.838 849.178 314.466 849.155 314.866"/><polyline class="cls-4" points="850.334 317.54 847.045 316.548 839.168 313.893 849.096 315.864 850.334 317.54"/><polyline class="cls-4" points="850.322 317.74 847.045 316.548 850.334 317.54 850.322 317.74"/><polyline class="cls-4" points="850.955 318.378 841.737 315.643 847.045 316.548 850.322 317.74 850.955 318.378"/><path class="cls-7" d="M849.20144,314.06708l-7.94018-1.65643,3.9353,1.42731c-7.30682-1.0196-15.97-1.71582-23.263-3.13575,3.95465-.13952,7.89533-.03826,11.82288.18647,6.74945.39221,13.47973,1.12249,20.22015,1.66046l-4.77515,1.51794"/><polyline class="cls-8" points="849.201 314.067 841.261 312.411 849.201 314.067"/><path class="cls-4" d="M857.33694,312.35273c-9.93872-1.8183-21.252-3.03211-28.45575-6.05963l2.16632.09747c13.8003.77881,23.245,4.77106,37.24616,5.627.36853.02027.74036.04077,1.11828.06159-6.56591-2.19312-17.16345-4.25446-23.7373-6.42743,10.59235,2.21478,20.48566,4.83435,30.375,7.42853l-18.71271-.72754"/><polyline class="cls-4" points="841.655 305.622 827.846 301.024 833.812 302.169 841.655 305.622"/><polyline class="cls-4" points="809.279 297.374 807.289 297.065 806.635 296.83 809.279 297.374"/><path class="cls-4" d="M821.19961,300.04432l-3.30682-.7898-8.6142-1.88092-1.98919-.30817,13.91021,2.97889m-3.30682-.7898-8.6142-1.88092,8.6142,1.88092"/><path class="cls-4" d="M833.812,302.16865l-5.9657-1.14447-9.95355-1.76966-8.6142-1.88092-2.64386-.54407.65467.2359-12.51386-4.0816,14.66858,1.39435c7.22839,2.78863,16.47968,5.14184,24.36792,7.79047"/><polyline class="cls-5" points="833.812 302.169 827.846 301.024 833.812 302.169"/><polyline class="cls-5" points="809.279 297.374 806.635 296.83 809.279 297.374"/><polyline class="cls-5" points="817.893 299.255 809.279 297.374 817.893 299.255"/><polyline class="cls-5" points="817.893 299.255 809.279 297.374 817.893 299.255"/><path class="cls-4" d="M805.51614,292.76313c-7.32184-.99671-13.96435-2.15717-19.22754-4.046l16.08118.27081-2.07019,1.08991,5.21655,2.68524"/><polyline class="cls-4" points="652.911 320.406 646.975 318.559 648.992 318.241 652.911 320.406"/><path class="cls-9" d="M470.06274,316.14411c-13.17456-6.752-23.69705-13.627-32.2146-21.01337l20.036,1.08814c10.79987.98571,21.575,2.80615,29.58493,5.24121,8.00992,2.45294,13.25467,5.49975,13.00751,8.89337a4.7978,4.7978,0,0,1-1.62292,2.98682,277.61787,277.61787,0,0,0-28.79087,2.80383"/><path class="cls-4" d="M549.53625,315.91315l-2.64181-.886c4.69848-.64539,5.4303-2.63025,13.44748-2.55994-1.40418,1.9458-6.1073,2.59973-10.80567,3.44592"/><path class="cls-10" d="M524.10873,317.48957c-5.27337-2.89832-12.3345-3.89234-19.76059-4.113-1.81518-.05322-3.65445-.06042-5.49453-.03625a4.7978,4.7978,0,0,0,1.62292-2.98682c.24716-3.39362-4.99759-6.44043-13.00751-8.89337-8.00992-2.43506-18.78506-4.2555-29.58493-5.24121q24.833,1.165,49.66562,2.10559,8.2842.27364,16.563.54712c16.00485.533,32.01364.83288,48.03192,1.007l-1.94345-1.87c-3.831-.30457-7.68481-.53265-11.53632-.71332-3.74487-.16754-7.48712-.29577-11.19751-.4162q-1.7423-.05556-3.46585-.11047c-6.9082-.22418-13.68133-.46161-20.167-.93982a146.25016,146.25016,0,0,1-18.38394-2.30334,272.36894,272.36894,0,0,1,27.569-.44617c6.16544.20007,12.33255.5791,18.42129,1.12445a286.9281,286.9281,0,0,1,50.68482,8.9632c5.29681,1.40374,13.28851,2.31457,21.28406,3.02319l-11.33484-.83765-1.406,1.74683,15.189,4.79022-3.98633-.55475-14.6402-1.76678-13.31415-1.51239c-2.74594-.339-5.50055-.53852-8.26815-.6369l-.00336-.00013c-8.653-.30713-17.53626.36371-27.162.78076l11.31238,1.4018c1.85953.66608,2.74463,1.30334,2.9025,1.9071.6546,2.6153-12.60871,4.48041-21.83994,4.84845l-1.32242-.44348c4.69837-.84619,9.40149-1.50012,10.80567-3.44592-8.01718-.07031-8.749,1.91455-13.44748,2.55994l-2.58975-2.48566-9.279-2.30219c4.77387-3.047-11.27435-2.76654-9.85092-5.52264l-15.97189-2.47784-8.7695,2.74285c11.92737,3.55481,24.50635,7.319,23.67538,12.50788"/><path class="cls-11" d="M500.47653,310.35346c.24716-3.39362-4.99759-6.44043-13.00751-8.89337-8.00992-2.43506-18.78506-4.2555-29.58493-5.24121,10.79987.98571,21.575,2.80615,29.58493,5.24121,8.00992,2.45294,13.25467,5.49975,13.00751,8.89337"/><path class="cls-12" d="M546.89444,315.02717c4.69848-.64539,5.4303-2.63025,13.44748-2.55994-8.01718-.07031-8.749,1.91455-13.44748,2.55994"/><path class="cls-4" d="M635.10733,314.66l-9.24945-2.77051-3.98633-.55475-14.6402-1.76678-.68347.37433,12.61981,2.08837-14.00595-.74053c5.28507,1.60467,11.95047,2.06262,18.60813,2.72045l11.33746.64942m-13.23578-3.32526-14.6402-1.76678,14.6402,1.76678"/><polyline class="cls-5" points="621.872 311.335 607.231 309.568 621.872 311.335"/><polyline class="cls-4" points="547.516 316.248 546.894 315.027 549.536 315.913 547.516 316.248"/><polyline class="cls-4" points="485.79 278.745 485.158 277.329 485.79 278.745"/><path class="cls-13" d="M554.18918,336.47529c-17.13431-6.15955-4.88968-13.56617-6.67316-20.227l2.02023-.33509,1.32242.44348c9.23123-.368,22.49454-2.23315,21.83994-4.84845-.15787-.60376-1.043-1.241-2.9025-1.9071l-11.31238-1.4018c9.6257-.417,18.509-1.08789,27.162-.78076,2.771.09851,5.52557.298,8.27151.637l13.31415,1.51239-.68347.37433-11.99127-1.262c6.60168,2.25311,15.9433,2.817,24.61108,3.3504l-14.00595-.74053c5.28507,1.60467,11.95047,2.06262,18.60813,2.72045l-2.04.922,7.84521,4.306L614.336,315.847l-5.40952,1.79248c5.20206,3.60461,11.70725,8.05689,22.26578,11.27-13.8681-3.73169-24.34558-9.17017-43.65476-11.07446l-1.39434,1.75342-3.95957-1.34168c4.54877,3.56165,14.4924,5.51416,18.35721,9.076l-11.87653-3.64221c.58735,2.22156,6.5275,4.03027,8.461,5.91247-9.74994-3.12426-10.94659-9.80322-22.47635-10.21679l-.52435-.01673-.811-.03076c-20.53089-.73242-20.66449,6.761-12.29978,12.574l-3.96441-1.13953c-7.37107.96265-.80191,3.97607-2.86023,5.712"/><path class="cls-14" d="M572.69861,311.50818c-.15787-.60376-1.043-1.241-2.9025-1.9071l-11.31238-1.4018,11.31238,1.4018c1.85953.66608,2.74463,1.30334,2.9025,1.9071"/><path class="cls-14" d="M558.48373,308.19928c9.6257-.417,18.509-1.08789,27.162-.78076-8.653-.30713-17.53626.36371-27.162.78076"/><polyline class="cls-15" points="619.168 312.031 605.162 311.29 619.168 312.031"/><polyline class="cls-15" points="606.548 309.942 607.231 309.568 606.548 309.942"/><path class="cls-13" d="M645.41354,307.88465l2.67987-.28888,3.39527-1.05957-3.99054-.56629,3.99054.56629.73541-1.57025-9.26184-2.58869,5.31408.8219-7.91986-2.53161,9.96235,1.81634.04168-.99908-3.30694-.93854c-7.98194-1.13422-16.66895-1.50226-23.97345-2.97491,3.43622-.12116,6.87317-.08594,10.32849.05682,7.30487.30487,14.69421,1.02557,22.40777,1.48242l2.689-.28851c-9.97913-1.61475-21.30878-2.69727-28.55878-5.58844.73517.01843,1.4502.03644,2.15918.05426,13.82349.57849,23.33057,4.40936,37.35266,5.00189.369.01392.7439.02814,1.11621.04224-6.60357-2.09119-17.23956-3.92743-23.85046-6.00684,10.6308,2.052,20.57239,4.44452,30.50562,6.90637l1.33758.05994c13.32709,1.404,25.306,2.917,37.2912,4.3092l-15.24432-3.32086,15.24432,3.32086c19.2865,2.50336,37.23907,5.01764,55.81567,8.178l-14.49261-4.54614c9.4491-1.51678,20.105-.38782,28.82831-.70264-13.94678-2.16888-25.8512-5.141-39.17273-6.63281,13.32153,1.49182,25.226,4.46393,39.17273,6.63281l2.67419-.05578c-11.17413-3.82868-25.8089-5.75324-37.04834-8.73468,7.99,1.008,14.57886,3.1463,23.91358,3.82306l-2.62323-.9347-4.00568-.40484,4.00568.40484a190.2036,190.2036,0,0,1,23.22931,4.04724c8.15209-2.159,17.65032-4.2655,27.0166-3.91839l4.67425.26746-9.95355-1.76966,3.30682.7898-13.91021-2.97889-12.51386-4.0816,14.66858,1.39435-3.928-1.615c-7.32184-.99671-13.96435-2.15717-19.22754-4.046l16.08118.27081,9.50574-2.08893-1.148-3.46753c-5.53827-2.94616-14.72235-5.01873-25.877-5.62237-.66021-.03058-1.3305-.06165-2.00415-.09284l.50458,3.03168-3.23382-2.17792-6.13819,1.88507-6.00531-.70831c-3.43933,1.62866-7.81665,1.906-12.49872,1.66705-4.682-.23767-9.67547-.99694-14.35162-1.4306l3.96625,1.201a14.43425,14.43425,0,0,1-7.49384,1.33026c-4.05487-.19433-8.33539-1.33795-11.93194-1.87115l-7.88953-2.2132-.72376-.00146.30011-.11853-.29064-.08143-11.35212-1.14428-5.96942-1.46918-3.30877-1.14935,3.30877,1.14935,3.99011.78009-3.29242-1.349,6.64893,1.30335-13.272-3.20252-4.66193-.80914,1.34967-.13989-5.95868-1.86835-12.6297-2.76856-8.7406.22821,7.4115-.48822,4.03424-.21893-13.37445-1.17468.71332-.97113c-5.34076-.823-12.02588-1.50275-18.7196-1.98248l-.66419-.02771-11.42688.33123,10.1015-.78631-.59418-1.82617c-6.46417-.12024-13.39343.68219-20.36523.41241-1.71472-.06628-3.43439-.19537-5.14972-.41992l1.31989.45068-10.0557-.18817q-8.58682.84118-16.70151,1.94977l4.48624,1.58917-4.48624-1.58917c-19.48861,2.61084-36.75824,6.25415-49.50326,11.337,9.41522-.88684,18.83066-1.80487,26.92725-3.30474a242.2949,242.2949,0,0,1,36.79666-1.30182c1.38275.06353,2.76284.12689,4.1557.19079l-14.18491,2.66248.67038.0238-3.39249,1.08039,2.72211-1.10419c-21.43124-.76727-37.65167,3.0553-57.07461,2.64514l3.37991-.89185q-17.13492,1.27359-34.253,2.546l-12.86917,4.82459,10.69516.71362-6.05008.82276c-.88861.32568-4.3508.76428-4.708,1.252-.44882.62689,4.21551,1.33527,26.0397,1.976l11.38135-.04388c-12.75784,1.17969-24.18427,2.67932-33.6293,5.39331l8.64633,1.85413a272.284,272.284,0,0,1,27.569-.44617c6.16211.2,12.33249.58111,18.42129,1.12445a286.9281,286.9281,0,0,1,50.68482,8.9632c5.29681,1.40374,13.28851,2.31457,21.28406,3.02319l1.33691.0517-3.96808-1.15509,5.978,1.03338-9.2237-3.559,11.91022,3.262,2.02155-.32355-9.94562-2.38581,11.28711,2.243,2.70611-.68854,9.90137,3.21643m96.08045-8.26007c9.95221,1.91,18.51214,4.74927,31.16113,6.19641-12.649-1.44714-21.20892-4.28644-31.16113-6.19641l-3.98023-.79248-2.66241-.328,2.66241.328,3.98023.79248-.69849.56634-10.66187-1.11224,10.66187,1.11224.69849-.56634M685.99814,297.821c9.33923.62756,15.2221,3.87018,23.89367,4.49261-8.67157-.62243-14.55444-3.865-23.89367-4.49261m-8.02015-.3595-.66888-.03-6.665-.69763,6.665.69763.66888.03c7.985,1.16059,13.92542,3.02808,21.91242,3.98633-7.987-.95825-13.92743-2.82574-21.91242-3.98633m56.11658,2.80817-4.03851.40777,4.03851-.40777M547.89065,284.84345,530.43347,286.278l17.45718-1.43451m0,0L530.43347,286.278l17.45718-1.43451m0,0,2.68189-.11328,2.68866-.31238,2.68545-.11316,2.54782-.2973.26267-.02289,2.5607-.10113,2.689-.30408,2.68229-.105,2.69275-.306,2.68948-.303,2.01291-.12878,2.68982-.30506,2.69333-.30389,2.68353-.3053,2.02719-.32758,2.69055-.305,2.02475-.528a229.05377,229.05377,0,0,0-27.94577,2.46783l-.94876.107-.72006.11816c-1.07135.146-2.14923.29278-3.2266.43957l-.76852.08832-2.68222.3136-1.49976.24744c-1.07.1333-2.13147.26544-3.21112.3999m-44.12011-2.57239q1.74293.09944,3.54355.15082c.814.00848,1.64761.01721,2.47442.02582l2.68247.07879,2.67514-.12176,3.35839-.10071,1.60856-.19208c1.45541-.11053,2.91467-.25824,4.37857-.42169l.05914-.0069,2.68823-.3114-2.68823.3114,2.68823-.3114-2.68823.3114-.02286.00226c.90543-.10351,1.80084-.18591,2.71109-.31366-1.09076.16016-2.28155.264-3.487.34613l-1.89.08368-3.34525.10205-1.05765.04718c-1.03375.01-2.08087.02008-3.13064.03016l-1.83948-.054-1.91531.08642c-2.359.03138-4.66593.08973-6.8031.25751M783.351,280.748l-.0318.59979,2.6507.7439L783.351,280.748"/><path class="cls-3" d="M547.89065,284.84345c3.5149-.27716,7.0629-.557,10.60382-.83612l-2.54782.2973-2.68545.11316-2.68866.31238-2.68189.11328"/><path class="cls-3" d="M551.10177,284.44355l1.49976-.24744,2.68222-.3136.76852-.08832q-2.45462.322-4.9505.64936"/><path class="cls-3" d="M558.75714,283.98444c10.59412-.8111,21.09274-1.7063,30.13632-3.32281l-2.02475.528-2.69055.305-2.02719.32758-2.68353.3053-2.69333.30389-2.68982.30506-2.01291.12878-2.68948.303-2.69275.306-2.68229.105-2.689.30408-2.5607.10113"/><polyline class="cls-3" points="559.279 283.355 559.999 283.236 560.948 283.129 559.279 283.355"/><path class="cls-16" d="M717.0505,278.42872l.30011-.11853.42365.12-.72376-.00146"/><polyline class="cls-15" points="594.187 264.439 589.701 262.85 594.187 264.439"/><polyline class="cls-15" points="821.2 300.044 817.893 299.255 821.2 300.044"/><polyline class="cls-15" points="809.444 294.378 794.776 292.984 809.444 294.378"/><polyline class="cls-15" points="786.289 288.717 802.37 288.988 786.289 288.717"/><polyline class="cls-17" points="547.891 284.843 550.573 284.73 553.261 284.418 555.947 284.305 558.494 284.007 555.947 284.305 553.261 284.418 550.573 284.73 547.891 284.843"/><polyline class="cls-17" points="551.102 284.444 552.602 284.196 555.284 283.883 556.052 283.794 555.284 283.883 552.602 284.196 551.102 284.444"/><polyline class="cls-17" points="558.757 283.984 561.318 283.883 564.007 283.579 566.689 283.474 569.382 283.168 572.071 282.865 574.084 282.736 576.774 282.431 579.467 282.128 582.151 281.822 584.178 281.495 586.869 281.19 588.893 280.662 586.869 281.19 584.178 281.495 582.151 281.822 579.467 282.128 576.774 282.431 574.084 282.736 572.071 282.865 569.382 283.168 566.689 283.474 564.007 283.579 561.318 283.883 558.757 283.984"/><polyline class="cls-17" points="559.279 283.355 559.999 283.236 560.948 283.129 559.999 283.236 559.279 283.355"/><polyline class="cls-17" points="530.433 286.278 547.891 284.843 530.433 286.278"/><polyline class="cls-17" points="530.433 286.278 547.891 284.843 530.433 286.278"/><path class="cls-14" d="M623.4097,306.19007c-7.99555-.70862-15.98725-1.61945-21.28406-3.02319a286.9281,286.9281,0,0,0-50.68482-8.9632,286.9281,286.9281,0,0,1,50.68482,8.9632c5.29681,1.40374,13.28851,2.31457,21.28406,3.02319"/><path class="cls-14" d="M505.4505,293.5254a272.284,272.284,0,0,1,27.569-.44617,272.36894,272.36894,0,0,0-27.569.44617"/><path class="cls-3" d="M512.471,282.52649l-2.68247-.07879c3.36688.03442,6.82028-.06848,10.32456-.33576l-1.60856.19208-3.35839.10071-2.67514.12176"/><path class="cls-3" d="M510.57364,282.01355l1.91531-.08642,1.83948.054c-1.25937.01086-2.50873.02166-3.75479.0324"/><path class="cls-3" d="M517.45907,281.951l1.05765-.04718,3.34525-.10205,1.89-.08368c-2.003.13953-4.11743.20661-6.29291.23291"/><path class="cls-3" d="M524.49164,281.69025l.03628-.00464.02286-.00226-.05914.0069"/><polyline class="cls-4" points="487.791 279.001 489.136 278.84 487.791 279.001"/><path class="cls-9" d="M493.07538,281.55744c-16.70526-1.26959-32.70533-4.09241-49.42786-5.09815l10.11157-2.55657-1.34707.36511c2.22961.19244,5.05709.2901,8.153.3714,1.546.03845,3.171.07885,4.80878.1195,4.93982.12976,10.12686.31586,14.47052.82947l5.31384,1.74078-.00552.1991.63684,1.21735-4.05625,1.094,6.05729-.83862,1.34545-.16077,16.80854-2.10724-12.86917,4.82459"/><path class="cls-18" d="M460.56506,274.63923c-3.096-.0813-5.92343-.179-8.153-.3714,2.22961.19244,5.05047.2879,8.14639.36926,1.5527.03925,3.1777.08026,4.81543.12164-1.63773-.04065-3.26276-.08105-4.80878-.1195"/><polyline class="cls-18" points="452.412 274.268 453.759 273.903 452.412 274.268"/><polyline class="cls-19" points="485.79 278.745 485.153 277.528 485.158 277.329 485.79 278.745"/><polyline class="cls-18" points="493.075 281.557 505.945 276.733 493.075 281.557"/><path class="cls-9" d="M489.86026,294.37885c-9.99988-.28332-22.6243-1.95892-33.18277-3.39368,8.79422-3.76178,24.25821-6.38433,36.39789-9.42773l10.69516.71362-6.05008.82276c-.88861.32568-4.3508.76428-4.708,1.252-.44882.62689,4.21551,1.33527,26.0397,1.976l11.38135-.04388c-12.75784,1.17969-24.18427,2.67932-33.6293,5.39331l8.64633,1.85413-5.36719.44226a50.98651,50.98651,0,0,1-7.38251.45257c-.92117.00037-1.86135-.01263-2.84054-.04138"/><path class="cls-18" d="M496.80417,291.67127c9.445-2.714,20.87146-4.21362,33.6293-5.39331-12.75784,1.17969-24.18427,2.67932-33.6293,5.39331"/><path class="cls-18" d="M493.01242,284.34583c.35724-.48773,3.81943-.92633,4.708-1.252l6.05008-.82276-6.05008.82276c-.88861.32568-4.3508.76428-4.708,1.252"/><path class="cls-20" d="M524.11267,298.87159q-8.28512-.27375-16.563-.54712-24.83726-.93311-49.66562-2.10559-7.50623-.878-15.02453-1.04724-2.51148-.05814-5.01142-.0409c-5.23544-4.9234-9.812-9.83056-13.03427-15.10687l18.83365-3.56458c16.72253,1.00574,32.7226,3.82856,49.42786,5.09815-12.13968,3.0434-27.60367,5.666-36.39789,9.42773,10.55847,1.43476,23.18289,3.11036,33.18277,3.39368l.00668.00018c.97251.02857,1.91269.04157,2.83386.0412a50.98651,50.98651,0,0,0,7.38251-.45257l5.36719-.44226a146.25016,146.25016,0,0,0,18.38394,2.30334c6.48569.47821,13.25876.71741,20.167.94159,1.14884.03668,2.31034.07379,3.46585.11072,3.71372.12048,7.456.24676,11.19757.41418,3.85151.18067,7.70536.40875,11.53632.71332l1.94345,1.87c-16.01834-.17212-32.02707-.47394-48.03192-1.007"/><path class="cls-15" d="M524.11267,298.87159c16.00485.533,32.01358.83484,48.03192,1.007-16.01828-.17408-32.02707-.47394-48.03192-1.007"/><path class="cls-15" d="M507.54971,298.32447q-24.83726-.93311-49.66562-2.10559,24.833,1.165,49.66562,2.10559"/><path class="cls-15" d="M558.66482,297.29523c-3.74154-.16742-7.48385-.2937-11.19757-.41418-1.15551-.03693-2.317-.074-3.46585-.11072-6.9082-.22418-13.68127-.46338-20.167-.94159,6.48569.47821,13.25882.71564,20.167.93982q1.72326.05493,3.46585.11047c3.71039.12043,7.45264.24866,11.19751.4162"/><path class="cls-21" d="M489.86694,294.379l-.00668-.00018c.97919.02875,1.91937.04175,2.84054.04138-.92117.00037-1.86135-.01263-2.83386-.0412"/><path class="cls-21" d="M456.67749,290.98517c8.79422-3.76178,24.25821-6.38433,36.39789-9.42773-12.13968,3.0434-27.60367,5.666-36.39789,9.42773"/><path class="cls-4" d="M457.88409,296.21888l-20.036-1.08814q2.50325-.01675,5.01142.0409,7.51464.16616,15.02453,1.04724"/><polyline class="cls-19" points="457.884 296.219 437.848 295.131 457.884 296.219"/></g></g><g id="brush1"><g class="cls-2"><path class="cls-3" d="M112.82714,272.02387a54.90944,54.90944,0,0,1-5.7185-13.936l-4.62657-3.108,9.99884,2.63275c9.01471,1.61286,19.20805,2.83741,28.97338,4.30561,9.76489,1.48187,19.10227,3.17761,26.40335,5.67-4.34366-.51361-9.5307-.69971-14.47052-.82947-1.63772-.04138-3.26273-.08239-4.81542-.12164-3.09594-.08136-5.9168-.17682-8.1464-.36926l1.34708-.36511-10.11158,2.55657-10.03725-.43188,10.03725.43188-18.83366,3.56458"/><path class="cls-3" d="M405.78753,270.43018l-.42367-.12,2.43356-.953c9.42737-.74072,18.85868-1.51324,27.65381-2.86175a212.88576,212.88576,0,0,1,33.32605-.79694q3.45685.18714,6.97141.47705l-14.22855,2.45075-1.37619-.075c-19.85715-1.02514-36.3075,2.238-54.35642,1.87891"/><path class="cls-4" d="M474.8865,257.11573c10.789-.8122,22.2425-1.21558,33.69229-1.56763l-.1008,1.798c-6.32489-.05719-13.09414.52637-19.90289.15149-1.87152-.10125-3.74872-.27136-5.61432-.54541l1.31662.47126-9.3909-.30768"/><polyline class="cls-4" points="498.925 259.819 509.048 259.181 510.363 259.657 498.925 259.819"/><polyline class="cls-4" points="401.386 305.693 398.745 304.965 402.063 305.526 401.386 305.693"/><polyline class="cls-4" points="503.238 326.96 498.632 325.699 503.238 326.96"/><polyline class="cls-4" points="498.632 325.699 497.965 325.663 498.632 325.699"/><polyline class="cls-4" points="567.348 273.22 564.063 272.02 567.348 273.22"/><polyline class="cls-4" points="523.473 323.71 522.159 323.235 523.473 323.71"/><polyline class="cls-4" points="277.714 254.85 270.275 252.213 277.714 254.85"/><polyline class="cls-4" points="398.745 304.965 393.482 303.112 398.745 304.965"/><polyline class="cls-4" points="558.909 268.304 554.264 267.422 558.257 268.064 558.909 268.304"/><polyline class="cls-4" points="573.297 274.781 567.348 273.22 571.327 274.062 573.297 274.781"/><polyline class="cls-4" points="530.888 265.038 538.313 264.461 539.642 264.738 538.313 264.461 539.642 264.738 539.631 264.938 530.888 265.038"/><path class="cls-4" d="M567.49475,270.82532l-8.58621-2.52154-4.64487-.88184,3.9935.642a261.35667,261.35667,0,0,0-27.86615-6.05914l-1.39539.92175L542.35544,264.3l-4.04209.16138,1.329.27661,2.666.36041-2.67771-.16058,13.2721,2.80322L547.62811,266.02l6.61157,1.8017-1.33691-.08063,5.92142,1.95966,8.67056,1.12463m-13.25507-3.00366,1.34027.08081-1.34027-.08081"/><polyline class="cls-5" points="558.257 268.064 554.264 267.422 558.257 268.064"/><polyline class="cls-5" points="539.642 264.738 538.313 264.461 539.642 264.738"/><polyline class="cls-4" points="583.307 275.81 579.987 275.198 575.343 274.304 561.459 270.661 558.824 269.701 567.495 270.825 583.307 275.81"/><polyline class="cls-4" points="542.308 265.098 539.631 264.938 539.642 264.738 542.308 265.098"/><polyline class="cls-5" points="542.308 265.098 539.631 264.938 542.308 265.098"/><polyline class="cls-4" points="584.634 276.093 582.016 275.789 579.987 275.198 583.307 275.81 584.634 276.093"/><polyline class="cls-4" points="582.629 275.966 582.016 275.789 582.629 275.966"/><polyline class="cls-4" points="580.851 275.654 573.297 274.781 577.312 275.028 580.851 275.654"/><polyline class="cls-5" points="539.642 264.738 538.313 264.461 539.642 264.738"/><polyline class="cls-4" points="582.629 275.966 580.851 275.654 582.629 275.966"/><polyline class="cls-4" points="582.016 275.789 580.851 275.654 577.312 275.028 575.343 274.304 579.987 275.198 575.343 274.304 579.987 275.198 582.016 275.789"/><polyline class="cls-5" points="582.629 275.966 580.851 275.654 582.016 275.789 582.629 275.966"/><polyline class="cls-5" points="580.851 275.654 577.312 275.028 580.851 275.654"/><polyline class="cls-5" points="579.987 275.198 575.343 274.304 579.987 275.198"/><polyline class="cls-4" points="577.312 275.028 573.297 274.781 571.327 274.062 577.312 275.028"/><polyline class="cls-5" points="573.297 274.781 571.327 274.062 573.297 274.781"/><polyline class="cls-5" points="577.312 275.028 573.297 274.781 577.312 275.028"/><polyline class="cls-4" points="577.312 275.028 571.327 274.062 568.055 272.662 574.673 274.264 575.343 274.304 577.312 275.028"/><polyline class="cls-5" points="577.312 275.028 571.327 274.062 577.312 275.028"/><polyline class="cls-5" points="555.58 267.902 554.24 267.822 555.58 267.902"/><polyline class="cls-4" points="554.24 267.822 552.903 267.741 547.628 266.02 554.24 267.822"/><polyline class="cls-5" points="554.24 267.822 552.903 267.741 554.24 267.822"/><polyline class="cls-5" points="552.903 267.741 547.628 266.02 552.903 267.741"/><polyline class="cls-4" points="561.459 270.661 557.479 269.82 558.824 269.701 561.459 270.661"/><polyline class="cls-4" points="575.343 274.304 574.673 274.264 561.459 270.661 575.343 274.304"/><polyline class="cls-5" points="575.343 274.304 574.673 274.264 575.343 274.304 574.673 274.264 575.343 274.304"/><polyline class="cls-6" points="575.343 274.304 574.673 274.264 575.343 274.304"/><polyline class="cls-4" points="518.207 310.588 508.314 308.019 519.554 310.465 518.207 310.588"/><polyline class="cls-4" points="513.494 311.12 504.332 307.39 516.178 310.873 513.494 311.12"/><path class="cls-4" d="M505.80926,316.89045c-9.32122-.7378-17.98071-1.38416-25.21966-3.58472l12.62964,1.4845-.66751-.03614,13.25753,2.13636"/><polyline class="cls-4" points="505.809 316.89 492.552 314.754 493.219 314.79 505.809 316.89"/><polyline class="cls-5" points="505.809 316.89 492.552 314.754 505.809 316.89"/><polyline class="cls-4" points="510.812 311.167 507.534 309.978 513.494 311.12 510.812 311.167"/><polyline class="cls-4" points="538.207 311.936 534.227 311.304 538.207 311.936"/><path class="cls-7" d="M674.68271,314.15558l3.37677-.36609,4.78332-1.27044a194.33587,194.33587,0,0,0-23.1521-4.42029l2.61249.98566c-9.32489-.849-15.87329-3.11811-23.84424-4.24073,11.18677,3.13282,25.78,5.38953,36.22376,9.31189"/><polyline class="cls-4" points="624.327 305.707 621.668 305.331 624.327 305.707"/><polyline class="cls-4" points="659.691 308.099 655.701 307.622 659.691 308.099"/><polyline class="cls-4" points="628.288 306.573 624.327 305.707 628.288 306.573"/><polyline class="cls-4" points="537.191 306.466 533.21 305.838 529.275 304.411 537.215 306.067 537.191 306.466"/><polyline class="cls-4" points="537.168 306.866 533.21 305.838 537.191 306.466 537.168 306.866"/><polyline class="cls-4" points="538.348 309.54 535.059 308.548 527.181 305.893 537.109 307.864 538.348 309.54"/><polyline class="cls-4" points="538.336 309.74 535.059 308.548 538.348 309.54 538.336 309.74"/><polyline class="cls-4" points="538.968 310.378 529.75 307.643 535.059 308.548 538.336 309.74 538.968 310.378"/><path class="cls-7" d="M537.21472,306.06714l-7.94016-1.65649,3.93531,1.42731c-7.30683-1.0196-15.97-1.71582-23.263-3.13575,3.95465-.13952,7.89535-.03826,11.82287.18647,6.74945.39221,13.47977,1.12249,20.22016,1.66046l-4.77515,1.518"/><polyline class="cls-8" points="537.215 306.067 529.275 304.411 537.215 306.067"/><path class="cls-4" d="M545.35022,304.35273c-9.93869-1.8183-21.252-3.03211-28.45572-6.05963l2.16632.09747c13.80026.77881,23.24493,4.77106,37.24609,5.627.36856.02027.74042.04077,1.11832.06159-6.56589-2.19312-17.16345-4.25446-23.7373-6.42743,10.59237,2.21478,20.48565,4.83435,30.375,7.42847l-18.71274-.72748"/><polyline class="cls-4" points="529.669 297.622 515.86 293.024 521.825 294.169 529.669 297.622"/><polyline class="cls-4" points="497.292 289.374 495.303 289.065 494.648 288.83 497.292 289.374"/><path class="cls-4" d="M509.21292,292.04432l-3.30682-.7898-8.61423-1.88092-1.9892-.30817,13.91025,2.97889m-3.30682-.7898-8.61423-1.88092,8.61423,1.88092"/><path class="cls-4" d="M521.82535,294.16865l-5.96573-1.14447-9.95352-1.76966-8.61423-1.88092-2.64383-.54407.65463.2359-12.51385-4.0816,14.66861,1.39435c7.22836,2.78863,16.47967,5.14184,24.36792,7.79047"/><polyline class="cls-5" points="521.825 294.169 515.86 293.024 521.825 294.169"/><polyline class="cls-5" points="497.292 289.374 494.648 288.83 497.292 289.374"/><polyline class="cls-5" points="505.906 291.255 497.292 289.374 505.906 291.255"/><polyline class="cls-5" points="505.906 291.255 497.292 289.374 505.906 291.255"/><path class="cls-4" d="M493.52942,284.76313c-7.32184-.99671-13.96436-2.15717-19.22754-4.046l16.08121.27081-2.0702,1.08991,5.21653,2.68524"/><polyline class="cls-4" points="340.924 312.406 334.988 310.559 337.005 310.241 340.924 312.406"/><path class="cls-9" d="M158.076,308.14417c-13.17458-6.752-23.69707-13.62708-32.21461-21.01343l20.03593,1.08814c10.79987.98571,21.575,2.80615,29.585,5.24121,8.00991,2.45294,13.25466,5.49975,13.00749,8.89337a4.798,4.798,0,0,1-1.62293,2.98688,277.55115,277.55115,0,0,0-28.79083,2.80383"/><path class="cls-4" d="M237.54954,307.91315l-2.64183-.886c4.69849-.64539,5.43032-2.63025,13.44748-2.55994-1.40419,1.9458-6.1073,2.59973-10.80565,3.44592"/><path class="cls-10" d="M212.122,309.48963c-5.27337-2.89838-12.33449-3.89233-19.76058-4.113-1.81519-.05328-3.65444-.06048-5.49455-.03625a4.798,4.798,0,0,0,1.62293-2.98688c.24717-3.39362-4.99758-6.44043-13.00749-8.89337-8.00993-2.43506-18.78508-4.2555-29.585-5.24121q24.833,1.165,49.66564,2.10559,8.28419.27364,16.563.54712c16.00485.533,32.01364.83288,48.03192,1.007l-1.94347-1.87c-3.831-.30457-7.68481-.53265-11.5363-.71332-3.7449-.16754-7.48713-.29577-11.19752-.4162q-1.74228-.05556-3.46584-.11047c-6.90821-.22418-13.68135-.46161-20.167-.93982a146.25025,146.25025,0,0,1-18.384-2.30334,272.36928,272.36928,0,0,1,27.569-.44617c6.16545.20007,12.33254.5791,18.42129,1.12445a286.92872,286.92872,0,0,1,50.68483,8.9632c5.2968,1.40374,13.28851,2.31457,21.28407,3.02319l-11.33484-.83765-1.406,1.74683,15.189,4.79022-3.98633-.55475-14.64019-1.76678-13.31414-1.51239c-2.74595-.339-5.50054-.53852-8.26817-.6369l-.00334-.00013c-8.65295-.30713-17.53627.36371-27.162.78076l11.31238,1.4018c1.85954.66608,2.74464,1.30334,2.90249,1.9071.65462,2.6153-12.60869,4.48035-21.83992,4.84851l-1.32242-.44354c4.69835-.84619,9.40146-1.50012,10.80565-3.44592-8.01716-.07031-8.749,1.91455-13.44748,2.55994l-2.58975-2.48566-9.279-2.30219c4.77388-3.047-11.27436-2.76654-9.85092-5.52264l-15.9719-2.47784-8.7695,2.74285c11.92739,3.55481,24.50637,7.319,23.67538,12.50794"/><path class="cls-11" d="M188.4898,302.35346c.24717-3.39362-4.99758-6.44043-13.00749-8.89337-8.00993-2.43506-18.78508-4.2555-29.585-5.24121,10.79987.98571,21.575,2.80615,29.585,5.24121,8.00991,2.45294,13.25466,5.49975,13.00749,8.89337"/><path class="cls-12" d="M234.90771,307.02717c4.69849-.64539,5.43032-2.63025,13.44748-2.55994-8.01716-.07031-8.749,1.91455-13.44748,2.55994"/><path class="cls-4" d="M323.12063,306.66l-9.24948-2.77057-3.98633-.55475-14.64019-1.76678-.68346.37433,12.61978,2.08837-14.00593-.74053c5.285,1.60467,11.9505,2.06256,18.60815,2.72052l11.33746.64941m-13.23581-3.32532-14.64019-1.76678,14.64019,1.76678"/><polyline class="cls-5" points="309.885 303.335 295.245 301.568 309.885 303.335"/><polyline class="cls-4" points="235.529 308.248 234.908 307.027 237.55 307.913 235.529 308.248"/><polyline class="cls-4" points="173.803 270.745 173.171 269.329 173.803 270.745"/><path class="cls-13" d="M242.20244,328.47529c-17.13429-6.15955-4.88965-13.56617-6.67313-20.22712l2.02023-.335,1.32242.44354c9.23123-.36816,22.49454-2.23321,21.83992-4.84851-.15785-.60376-1.043-1.241-2.90249-1.9071l-11.31238-1.4018c9.6257-.417,18.509-1.08789,27.162-.78076,2.771.09851,5.52556.298,8.27151.637l13.31414,1.51239-.68346.37433-11.99127-1.262c6.60167,2.25311,15.94327,2.817,24.611,3.3504l-14.00593-.74053c5.285,1.60467,11.9505,2.06256,18.60815,2.72052l-2.04.92193,7.84521,4.30609-15.239-3.39172-5.40954,1.79248c5.20207,3.60467,11.70727,8.057,22.26576,11.27008-13.86809-3.73169-24.34555-9.17023-43.65472-11.0744l-1.39437,1.75336-3.95955-1.34168c4.54877,3.56165,14.49239,5.51416,18.3572,9.076l-11.87653-3.64221c.58736,2.22156,6.5275,4.03027,8.461,5.91247-9.74994-3.12426-10.94661-9.80316-22.47636-10.21685l-.52434-.01661c-.27011-.01031-.54356-.02069-.811-.03088-20.5309-.73242-20.66451,6.76105-12.29979,12.574l-3.96442-1.13953c-7.37106.96265-.80189,3.97607-2.86024,5.712"/><path class="cls-14" d="M260.71188,303.50818c-.15785-.60376-1.043-1.241-2.90249-1.9071l-11.31238-1.4018,11.31238,1.4018c1.85954.66608,2.74464,1.30334,2.90249,1.9071"/><path class="cls-14" d="M246.497,300.19928c9.6257-.417,18.509-1.08789,27.162-.78076-8.65295-.30713-17.53627.36371-27.162.78076"/><polyline class="cls-15" points="307.181 304.031 293.175 303.29 307.181 304.031"/><polyline class="cls-15" points="294.561 301.942 295.245 301.568 294.561 301.942"/><path class="cls-13" d="M333.42682,299.88465l2.67988-.28888,3.39525-1.05957-3.99052-.56629,3.99052.56629.73544-1.57025-9.26185-2.58869,5.314.8219-7.91981-2.53161,9.9623,1.81634.04173-.99908-3.307-.93854c-7.98192-1.13422-16.669-1.50226-23.97342-2.97491,3.43621-.12116,6.87313-.08594,10.32845.05682,7.30488.30487,14.69421,1.02557,22.4078,1.48242l2.689-.28851c-9.97913-1.61475-21.30878-2.69727-28.55875-5.58844.73517.01843,1.45018.03644,2.15918.05426,13.82346.57849,23.33054,4.40936,37.35268,5.00189.36893.01392.7439.02814,1.11618.04224-6.60359-2.09119-17.23955-3.92743-23.85043-6.00684,10.63075,2.052,20.57238,4.44452,30.50561,6.90637l1.33759.05994c13.32705,1.404,25.306,2.917,37.2912,4.3092l-15.24436-3.32086,15.24436,3.32086c19.28646,2.50336,37.23907,5.01764,55.81564,8.178l-14.49262-4.54614c9.4491-1.51678,20.105-.38782,28.82834-.70264-13.9468-2.16888-25.85119-5.141-39.17276-6.63281,13.32157,1.49182,25.226,4.46393,39.17276,6.63281l2.6742-.05578c-11.1742-3.82868-25.8089-5.75324-37.0484-8.73468,7.99008,1.008,14.57888,3.1463,23.91357,3.82306l-2.62323-.9347-4.00565-.40484,4.00565.40484a190.20074,190.20074,0,0,1,23.22934,4.04724c8.1521-2.159,17.65033-4.2655,27.0166-3.91839l4.67426.26746-9.95352-1.76966,3.30682.7898-13.91025-2.97889-12.51385-4.0816,14.66861,1.39435-3.928-1.615c-7.32184-.99671-13.96436-2.15717-19.22754-4.046l16.08121.27081,9.50573-2.08893-1.148-3.46753c-5.5383-2.94616-14.72232-5.01873-25.877-5.62237-.66025-.03058-1.33051-.06165-2.00415-.09284l.50458,3.03168-3.23386-2.17792-6.13818,1.88507-6.00525-.70831c-3.43939,1.62866-7.81665,1.906-12.49872,1.66705-4.682-.23767-9.67551-.99694-14.35162-1.4306l3.96624,1.201a14.43438,14.43438,0,0,1-7.49386,1.33026c-4.05484-.19433-8.33542-1.33795-11.932-1.87115l-7.88953-2.2132-.72378-.00146.30011-.11853-.29062-.08143-11.35211-1.14428-5.96942-1.46918-3.30878-1.14935,3.30878,1.14935,3.99008.78009-3.29239-1.349,6.649,1.30335-13.272-3.20252-4.66195-.80914,1.34973-.13989-5.95871-1.86835-12.62967-2.76856-8.74065.22821,7.41152-.48822,4.03427-.21893-13.37445-1.17468.71332-.97113c-5.34079-.823-12.0259-1.50275-18.71964-1.98248l-.66415-.02771-11.42688.33123,10.10145-.78631-.59416-1.82617c-6.46417-.12024-13.39342.68219-20.36525.41241-1.71471-.06628-3.43434-.19537-5.14967-.41992l1.31985.45068-10.05569-.18817q-8.58682.84118-16.7015,1.94977l4.48623,1.58917-4.48623-1.58917c-19.48861,2.61084-36.75827,6.25415-49.50328,11.337,9.41523-.88684,18.83066-1.80487,26.92725-3.30474a242.29509,242.29509,0,0,1,36.79666-1.30182c1.38277.06353,2.76285.12689,4.1557.19079l-14.18489,2.66248.67037.0238-3.39248,1.08039,2.72211-1.10419c-21.43124-.76727-37.65169,3.0553-57.07463,2.64514l3.37991-.89185-34.253,2.546-12.86917,4.82459,10.69515.71362-6.05006.82276c-.88863.32568-4.35081.76428-4.708,1.252-.44883.62689,4.21553,1.33527,26.03971,1.976l11.38134-.04388c-12.75786,1.17969-24.18425,2.67932-33.62932,5.39331l8.64634,1.85413a272.28436,272.28436,0,0,1,27.569-.44617c6.1621.2,12.33248.58111,18.42129,1.12445a286.92872,286.92872,0,0,1,50.68483,8.9632c5.2968,1.40374,13.28851,2.31457,21.28407,3.02319l1.33689.0517-3.96807-1.15509,5.978,1.03338-9.22372-3.559,11.9102,3.262,2.02156-.32355-9.9456-2.38581,11.28709,2.243,2.70614-.68854,9.90135,3.21643m96.08041-8.26007c9.95224,1.91,18.51215,4.74927,31.16116,6.19641-12.649-1.44714-21.20892-4.28644-31.16116-6.19641l-3.98022-.79248-2.66239-.328,2.66239.328,3.98022.79248-.69842.56634-10.66187-1.11224,10.66187,1.11224.69842-.56634M374.01138,289.821c9.33927.62756,15.22217,3.87018,23.89368,4.49261-8.67151-.62243-14.55441-3.865-23.89368-4.49261m-8.02008-.3595-.66888-.03-6.665-.69763,6.665.69763.66888.03c7.98492,1.16059,13.92542,3.02808,21.91238,3.98633-7.987-.95825-13.92746-2.82574-21.91238-3.98633m56.11655,2.80817-4.03852.40777,4.03852-.40777M235.90391,276.84345,218.44675,278.278l17.45716-1.43451m0,0L218.44675,278.278l17.45716-1.43451m0,0,2.6819-.11328,2.68866-.31238,2.68547-.11316,2.54781-.2973.26266-.02289,2.56072-.10113,2.689-.30408,2.6823-.105,2.69273-.306,2.68948-.303,2.01291-.12878,2.68984-.30506,2.69333-.30389,2.68351-.3053,2.02719-.32758,2.69054-.305,2.02477-.528a229.05306,229.05306,0,0,0-27.94576,2.46783l-.94877.107-.72007.11816c-1.07135.146-2.14923.29278-3.22659.43957l-.76852.08832-2.68221.3136-1.49977.24744c-1.07.1333-2.13147.26544-3.21114.3999m-44.12011-2.57239q1.743.09944,3.54358.15082c.81405.00848,1.64759.01721,2.47441.02582l2.68248.07879,2.67513-.12176,3.35838-.10071,1.60857-.19208c1.4554-.11053,2.91469-.25824,4.37855-.42169l.05916-.0069,2.68823-.3114-2.68823.3114,2.68823-.3114-2.68823.3114-.02284.00226c.90541-.10351,1.80083-.18591,2.71107-.31366-1.09077.16016-2.28154.264-3.487.34613l-1.89.08368-3.34525.10205-1.05764.04718c-1.03376.01-2.08086.02008-3.13062.03016l-1.83949-.054-1.91534.08642c-2.359.03138-4.6659.08973-6.8031.25751M471.36426,272.748l-.03177.59979,2.65066.7439-2.61889-1.34369"/><path class="cls-3" d="M235.90391,276.84345c3.51491-.27716,7.06292-.557,10.60384-.83612l-2.54781.2973-2.68547.11316-2.68866.31238-2.6819.11328"/><path class="cls-3" d="M239.11505,276.44355l1.49977-.24744,2.68221-.3136.76852-.08832q-2.4546.322-4.9505.64936"/><path class="cls-3" d="M246.77041,275.98444c10.59412-.8111,21.09276-1.7063,30.13633-3.32281l-2.02477.528-2.69054.305-2.02719.32758-2.68351.3053-2.69333.30389-2.68984.30506-2.01291.12878-2.68948.303-2.69273.306-2.6823.105-2.689.30408-2.56072.10113"/><polyline class="cls-3" points="247.292 275.355 248.012 275.236 248.961 275.129 247.292 275.355"/><path class="cls-16" d="M405.06375,270.42872l.30011-.11853.42367.12-.72378-.00146"/><polyline class="cls-15" points="282.2 256.439 277.714 254.85 282.2 256.439"/><polyline class="cls-15" points="509.213 292.044 505.906 291.255 509.213 292.044"/><polyline class="cls-15" points="497.457 286.378 482.789 284.984 497.457 286.378"/><polyline class="cls-15" points="474.302 280.717 490.383 280.988 474.302 280.717"/><polyline class="cls-17" points="235.904 276.843 238.586 276.73 241.274 276.418 243.96 276.305 246.508 276.007 243.96 276.305 241.274 276.418 238.586 276.73 235.904 276.843"/><polyline class="cls-17" points="239.115 276.444 240.615 276.196 243.297 275.883 244.066 275.794 243.297 275.883 240.615 276.196 239.115 276.444"/><polyline class="cls-17" points="246.77 275.984 249.331 275.883 252.02 275.579 254.702 275.474 257.395 275.168 260.085 274.865 262.098 274.736 264.787 274.431 267.481 274.128 270.164 273.822 272.191 273.495 274.882 273.19 276.907 272.662 274.882 273.19 272.191 273.495 270.164 273.822 267.481 274.128 264.787 274.431 262.098 274.736 260.085 274.865 257.395 275.168 254.702 275.474 252.02 275.579 249.331 275.883 246.77 275.984"/><polyline class="cls-17" points="247.292 275.355 248.012 275.236 248.961 275.129 248.012 275.236 247.292 275.355"/><polyline class="cls-17" points="218.447 278.278 235.904 276.843 218.447 278.278"/><polyline class="cls-17" points="218.447 278.278 235.904 276.843 218.447 278.278"/><path class="cls-14" d="M311.423,298.19007c-7.99556-.70862-15.98727-1.61945-21.28407-3.02319a286.92872,286.92872,0,0,0-50.68483-8.9632,286.92872,286.92872,0,0,1,50.68483,8.9632c5.2968,1.40374,13.28851,2.31457,21.28407,3.02319"/><path class="cls-14" d="M193.46377,285.5254a272.28436,272.28436,0,0,1,27.569-.44617,272.36928,272.36928,0,0,0-27.569.44617"/><path class="cls-3" d="M200.48427,274.52649l-2.68248-.07879c3.36689.03442,6.82027-.06848,10.32456-.33576l-1.60857.19208-3.35838.10071-2.67513.12176"/><path class="cls-3" d="M198.5869,274.01355l1.91534-.08642,1.83949.054c-1.25938.01086-2.50875.02166-3.75483.0324"/><path class="cls-3" d="M205.47235,273.951l1.05764-.04718,3.34525-.10205,1.89-.08368c-2.00295.13953-4.11743.20661-6.29291.23291"/><path class="cls-3" d="M212.5049,273.69025l.03632-.00464.02284-.00226-.05916.0069"/><polyline class="cls-4" points="175.804 271.001 177.149 270.84 175.804 271.001"/><path class="cls-9" d="M181.08865,273.55744c-16.70524-1.26959-32.70531-4.09241-49.42785-5.09815l10.11158-2.55657-1.34708.36511c2.2296.19244,5.05711.2901,8.153.3714,1.546.03845,3.171.07885,4.80878.1195,4.93982.12976,10.12686.31586,14.47052.82947l5.31384,1.74078-.00551.1991.63682,1.21735-4.05623,1.094,6.05726-.83862,1.34549-.16077,16.80851-2.10724-12.86917,4.82459"/><path class="cls-18" d="M148.57834,266.63923c-3.09593-.0813-5.92344-.179-8.153-.3714,2.2296.19244,5.05046.2879,8.1464.36926,1.55269.03925,3.1777.08026,4.81542.12164-1.63774-.04065-3.26276-.08105-4.80878-.1195"/><polyline class="cls-18" points="140.425 266.268 141.772 265.903 140.425 266.268"/><polyline class="cls-19" points="173.803 270.745 173.166 269.528 173.171 269.329 173.803 270.745"/><polyline class="cls-18" points="181.089 273.557 193.958 268.733 181.089 273.557"/><path class="cls-9" d="M177.87353,286.37885c-9.99988-.28332-22.62428-1.95892-33.18276-3.39368,8.79423-3.76178,24.2582-6.38433,36.39788-9.42773l10.69515.71362-6.05006.82276c-.88863.32568-4.35081.76428-4.708,1.252-.44883.62689,4.21553,1.33527,26.03971,1.976l11.38134-.04388c-12.75786,1.17969-24.18425,2.67932-33.62932,5.39331l8.64634,1.85413-5.36718.44226a50.98655,50.98655,0,0,1-7.3825.45257c-.92117.00037-1.86135-.01263-2.84056-.04138"/><path class="cls-18" d="M184.81743,283.67127c9.44507-2.714,20.87146-4.21362,33.62932-5.39331-12.75786,1.17969-24.18425,2.67932-33.62932,5.39331"/><path class="cls-18" d="M181.0257,276.34583c.35723-.48773,3.81941-.92633,4.708-1.252l6.05006-.82276-6.05006.82276c-.88863.32568-4.35081.76428-4.708,1.252"/><path class="cls-20" d="M212.126,290.87159q-8.28514-.27375-16.563-.54712-24.83724-.93311-49.66564-2.10559-7.50619-.878-15.02452-1.04724-2.51149-.05814-5.01141-.0409c-5.23546-4.9234-9.812-9.83056-13.03429-15.10687l18.83366-3.56458c16.72254,1.00574,32.72261,3.82856,49.42785,5.09815-12.13968,3.0434-27.60365,5.666-36.39788,9.42773,10.55848,1.43476,23.18288,3.11036,33.18276,3.39368l.00669.00018c.97252.02857,1.9127.04157,2.83387.0412a50.98655,50.98655,0,0,0,7.3825-.45257l5.36718-.44226a146.25025,146.25025,0,0,0,18.384,2.30334c6.48567.47821,13.25876.71741,20.167.94159,1.14882.03668,2.31034.07379,3.46584.11072,3.71371.12048,7.456.24676,11.19758.41418,3.85149.18067,7.70534.40875,11.5363.71332l1.94347,1.87c-16.01834-.17212-32.02707-.47394-48.03192-1.007"/><path class="cls-15" d="M212.126,290.87159c16.00485.533,32.01358.83484,48.03192,1.007-16.01828-.17408-32.02707-.47394-48.03192-1.007"/><path class="cls-15" d="M195.563,290.32447q-24.83724-.93311-49.66564-2.10559,24.833,1.165,49.66564,2.10559"/><path class="cls-15" d="M246.67811,289.29523c-3.74156-.16742-7.48387-.2937-11.19758-.41418-1.1555-.03693-2.317-.074-3.46584-.11072-6.9082-.22418-13.68129-.46338-20.167-.94159,6.48567.47821,13.25881.71564,20.167.93982q1.72323.05493,3.46584.11047c3.71039.12043,7.45262.24866,11.19752.4162"/><path class="cls-21" d="M177.88022,286.379l-.00669-.00018c.97921.02875,1.91939.04175,2.84056.04138-.92117.00037-1.86135-.01263-2.83387-.0412"/><path class="cls-21" d="M144.69077,282.98517c8.79423-3.76178,24.2582-6.38433,36.39788-9.42773-12.13968,3.0434-27.60365,5.666-36.39788,9.42773"/><path class="cls-4" d="M145.89736,288.21888l-20.03593-1.08814q2.50323-.01675,5.01141.0409,7.51462.16616,15.02452,1.04724"/><polyline class="cls-19" points="145.897 288.219 125.861 287.131 145.897 288.219"/></g></g><circle id="circle" class="cls-22" cx="175.37523" cy="175.37523" r="174.37523"/><path id="last-n" class="cls-22" d="M733.5441,222.19991q-14.61034,16.27-14.60938,22.66114,0,3.56982,2.90528,3.56933,2.40673,0,6.2666-2.53125,3.86133-2.53125,12.07812-9.00683v5.72754q-11.78759,11.62206-18.0957,16.76757-6.30908,5.14747-10.293,5.14649-6.80712,0-6.80664-8.96484a16.92939,16.92939,0,0,1,.83008-5.2295,34.40391,34.40391,0,0,1,2.2832-5.35449q1.4502-2.77881,4.44043-7.96875,2.98828-5.18554,6.88965-11.74512-4.73145,2.4082-11.87012,9.5459a92.73906,92.73906,0,0,0-7.88574,8.50781q-3.2373,4.02832-6.93164,8.96485a70.35061,70.35061,0,0,1-5.39453,6.64062,4.934,4.934,0,0,1-3.44531,1.70215q-2.65723,0-4.89746-5.56152a34.48186,34.48186,0,0,1-2.24121-12.94922,19.65479,19.65479,0,0,1,1.03711-7.13867,47.79,47.79,0,0,1,4.10937-7.30469,81.211,81.211,0,0,1,9.87793-12.9082q4.1499-4.10742,7.96875-4.1084a8.67453,8.67453,0,0,1,4.27441.91308,3.023,3.023,0,0,1,1.61914,2.82227,3.64572,3.64572,0,0,1-.498,1.74316,10.16255,10.16255,0,0,1-1.1211,1.66016q-.62109.74707-2.61425,2.90527-13.11621,14.52686-13.11524,18.84278,0,2.4082,1.57715,2.40722.99609,0,3.85938-3.19531,2.86523-3.19482,7.38867-8.38476a134.79332,134.79332,0,0,1,10.707-10.832,115.49039,115.49039,0,0,1,14.07031-10.874q4.39893-3.0703,7.30469-3.07129,1.32714,0,2.61523,3.65235a22.12876,22.12876,0,0,1,1.28614,7.38769Q737.11344,218.465,733.5441,222.19991Z"/><path id="a" class="cls-22" d="M618.32877,222.36593q12.616-11.45508,24.48681-17.0166,11.87111-5.56054,18.34571-5.56152a4.57931,4.57931,0,0,1,3.23633,1.45312,11.05031,11.05031,0,0,1,2.36621,3.36133,7.8389,7.8389,0,0,1,.87207,2.82226,2.38961,2.38961,0,0,1-1.16211,2.19922,23.06261,23.06261,0,0,1-4.06836,1.70215q.58008,1.32861,1.49414,3.40332.91405,2.07568,1.41211,3.36133a6.44579,6.44579,0,0,1,.498,2.2832q0,1.9922-4.02636,7.42969-4.02685,5.4375-5.64453,8.00977a11.622,11.622,0,0,0-1.61817,6.30859q0,6.14355,5.64453,6.14258,5.80957,0,18.17774-10.874v5.06348q-21,23.32617-30.04883,23.3252-3.2373,0-4.60645-2.11621a11.63928,11.63928,0,0,1-1.37011-6.26758q0-6.55665,4.73242-19.00879-12.12012,13.44726-18.01367,19.13379-5.89454,5.68651-9.71143,5.68554-1.82665,0-4.56543-3.15429a30.39712,30.39712,0,0,1-4.856-8.17578,26.56342,26.56342,0,0,1-2.11669-10.418,24.10654,24.10654,0,0,1,.74707-6.51563,15.77624,15.77624,0,0,1,2.90527-5.35449A73.92678,73.92678,0,0,1,618.32877,222.36593Zm39.76025-9.13086q-21.583,9.87891-30.7539,16.76758-9.17286,6.89063-9.17237,14.19433a9.16349,9.16349,0,0,0,.91309,4.3584,2.76694,2.76694,0,0,0,2.48974,1.70118,9.06817,9.06817,0,0,0,3.23829-1.16211,65.20182,65.20182,0,0,0,15.9375-13.40625Q647.963,227.43087,658.089,213.23507Z"/><path id="m" class="cls-22" d="M552.7526,248.5964q11.45506-10.12647,19.67285-17.63867,8.21777-7.51173,12.90771-11.8291,4.689-4.31544,8.25928-7.30469,3.56836-2.98828,4.56543-2.98828,1.90869-.082,3.65234,3.94238a17.41184,17.41184,0,0,1,1.74317,6.43359q0,1.57764-5.271,7.42969-5.272,5.85058-7.88574,9.33789a12.00264,12.00264,0,0,0-2.61475,7.30469,4.66814,4.66814,0,0,0,1.49414,3.61133,5.104,5.104,0,0,0,3.56934,1.36914q2.40673,0,5.769-2.49024,3.36182-2.49023,10.5835-8.88183v5.89355q-7.22169,6.80713-13.11524,11.7461a70.32348,70.32348,0,0,1-10.25146,7.38671q-4.35791,2.44776-7.26318,2.44922a5.55994,5.55994,0,0,1-4.31641-1.95117,7.01409,7.01409,0,0,1-1.74317-4.85547,17.59132,17.59132,0,0,1,.9961-5.72754,51.66433,51.66433,0,0,1,3.07129-6.88964q2.07422-3.98437,5.47851-9.5879,3.40284-5.60155,6.22559-10.251-8.4668,6.89063-15.02441,13.28125-6.55812,6.39258-10.708,11.165-4.15137,4.77392-6.55762,7.51172-4.64941,5.14746-8.63281,5.14648-4.31689,0-4.31641-6.14258,0-2.49022,3.23731-8.92383,3.2373-6.43067,9.21386-16.39355a3.47049,3.47049,0,0,0,.49805-2.0752,1.46764,1.46764,0,0,0-1.66016-1.66015q-1.82665,0-5.271,3.44531-3.44532,3.44532-13.32276,14.40137a87.17983,87.17983,0,0,0-6.18408,8.01074,79.82586,79.82586,0,0,1-4.939,6.59863,4.15425,4.15425,0,0,1-2.98828,1.66016q-2.98829,0-5.56153-5.3125a28.054,28.054,0,0,1-2.57324-12.36817,21.2792,21.2792,0,0,1,1.70166-8.88183,77.76766,77.76766,0,0,1,5.271-9.29688,82.95233,82.95233,0,0,1,9.08935-11.49707,10.58652,10.58652,0,0,1,7.4292-3.44433,8.062,8.062,0,0,1,4.06738.9541,2.91541,2.91541,0,0,1,1.66016,2.61523q0,1.74316-3.02978,5.72754a62.43835,62.43835,0,0,1-7.67823,8.21778A32.32453,32.32453,0,0,0,527.2692,233.78q-2.24121,3.52881-2.24121,5.10449,0,2.24122,1.74316,2.24122,1.41064,0,7.13867-5.81055,5.72754-5.80957,12.57569-12.6582A135.81419,135.81419,0,0,1,559.1857,211.2839q5.85206-4.522,9.91943-4.52344a5.20241,5.20241,0,0,1,4.10889,1.86719,6.78953,6.78953,0,0,1,1.61865,4.60742q0,1.82666-2.49023,6.59961a123.328,123.328,0,0,1-7.26318,11.78711Q560.30533,238.63693,552.7526,248.5964Z"/><path id="u" class="cls-22" d="M488.50455,231.5798q-12.03663,15.9375-18.30322,22.66113-6.26806,6.72363-10.25147,6.72363a8.14952,8.14952,0,0,1-5.81055-2.61425,17.18821,17.18821,0,0,1-4.10888-7.05665,30.36712,30.36712,0,0,1-1.45264-9.5039,26.27,26.27,0,0,1,.62256-5.97656,23.79611,23.79611,0,0,1,2.36572-5.85157A54.4779,54.4779,0,0,1,456.173,223.03q2.86377-3.73534,7.01416-8.46679,2.49023-2.9048,4.19189-4.89747a9.70239,9.70239,0,0,1,3.32031-2.69824,14.27813,14.27813,0,0,1,5.271-.70508,17.9755,17.9755,0,0,1,5.06348.70508q2.40674.70752,2.40722,1.45313,0,1.49413-2.44873,5.39551a62.021,62.021,0,0,1-7.88574,9.50488,109.48082,109.48082,0,0,1-12.57568,10.99805,26.7633,26.7633,0,0,0-1.57715,7.4707q0,3.56982,2.73926,3.56933.99609,0,3.32031-1.70214,2.32324-1.69923,7.84424-6.55664,5.51952-4.85744,9.91943-8.5918a58.4095,58.4095,0,0,0,7.51221-8.42578q4.27441-5.60157,6.93115-8.42481,6.14209-6.4746,8.38379-8.4248a6.71811,6.71811,0,0,1,4.3164-1.95117,2.826,2.826,0,0,1,2.69776,1.24511q.70458,1.24512.70556,5.06348a9.866,9.866,0,0,1-.332,2.82227,13.21734,13.21734,0,0,1-1.36963,2.78125q-1.03857,1.70214-4.19189,6.2666-3.15528,4.56591-7.4707,10.791a42.85414,42.85414,0,0,0-4.06739,7.2627,16.57732,16.57732,0,0,0-1.74316,5.93554q0,4.3169,3.40332,4.31641A12.89828,12.89828,0,0,0,504.11,245.4421q3.73534-2.32325,11.45508-8.38379v5.56153q-9.71192,8.96484-14.36036,13.03222a61.23716,61.23716,0,0,1-8.05175,6.14258,12.50545,12.50545,0,0,1-6.47461,2.0752q-6.97266,0-6.97266-8.30078a25.25777,25.25777,0,0,1,2.0752-8.50782Q483.85514,241.70578,488.50455,231.5798Z"/><path id="h" class="cls-22" d="M449.40787,237.22433v5.22949q-7.22168,7.38867-12.49268,12.07813a67.16781,67.16781,0,0,1-9.21386,7.09668q-3.94336,2.40819-6.68213,2.40722-6.47462,0-6.47461-7.63672,0-6.14208,4.02588-14.23632A161.40773,161.40773,0,0,1,430.15006,223.113a48.70413,48.70413,0,0,0-7.05567,4.77246,48.01251,48.01251,0,0,0-5.89355,5.64453q-2.57373,2.94873-4.31641,5.02246-5.39647,6.06006-10.376,12.40918-4.98047,6.35157-6.72363,8.25977a4.77264,4.77264,0,0,1-3.32031,1.90918q-6.47462,0-6.47461-15.9375a47.88932,47.88932,0,0,1,1.57715-11.53809q1.57617-6.30762,8.4668-16.68457,14.52539-21.74706,24.86084-35.56933a234.47844,234.47844,0,0,1,17.14111-20.918q6.80566-7.09571,9.13086-6.93067a12.78043,12.78043,0,0,1,4.68994,1.16211q1.78417.91407,1.78467,2.0752,0,2.07569-2.86377,6.84765-2.86377,4.7754-9.83643,14.9004-7.55419,10.708-10.708,15.0664-3.15527,4.35645-9.42138,12.36719-6.26807,8.0127-11.45508,14.27734-5.18847,6.26953-11.82861,13.57227V243.782q11.12256-12.36768,19.25781-20.25391a126.86234,126.86234,0,0,1,13.7793-11.91211q5.644-4.02393,8.30078-4.02539,2.49022,0,4.64843,2.94727,2.15772,2.94726,2.15821,4.85546a4.03914,4.03914,0,0,1-.83008,2.0752q-5.97657,7.13964-9.5044,11.8291a60.85117,60.85117,0,0,0-5.437,8.38281,14.37355,14.37355,0,0,0-1.90918,6.35059q0,3.90234,3.73535,3.90137Q435.71158,247.93234,449.40787,237.22433Z"/><path id="s" class="cls-22" d="M333.944,239.54855v-1.99219q21.416-22.57764,29.46778-31.626,1.82519-10.21,8.79882-10.21a8.39724,8.39724,0,0,1,3.73535.9961l.49805,1.57714a9.3288,9.3288,0,0,0-.332,2.82227,26.49839,26.49839,0,0,0,1.20361,5.85156q1.20264,4.27736,1.86768,7.18067a29.55557,29.55557,0,0,1,.66406,6.55761,23.34013,23.34013,0,0,1-2.49023,10.5,35.626,35.626,0,0,1-7.22168,9.62891,78.35906,78.35906,0,0,1-12.20215,9.42188,30.48635,30.48635,0,0,0,4.73144.498,18.63132,18.63132,0,0,0,7.3462-1.70117,46.08283,46.08283,0,0,0,8.05175-4.56641q4.10889-2.8623,9.58741-7.42871v5.56153a123.87784,123.87784,0,0,1-19.00879,15.73047q-8.38478,5.35253-14.44336,5.35351-7.80322,0-14.44336-6.64062a17.82973,17.82973,0,0,1-4.856-7.63672A40.61433,40.61433,0,0,1,333.944,239.54855Zm30.96192-12.7002-1.49414-12.11914q-5.14748,5.811-21.99708,22.3291,4.98048,1.07959,6.80665,2.90528a45.89051,45.89051,0,0,1,5.14648,7.05566,20.10822,20.10822,0,0,0,8.67432-6.35059q3.0293-4.02391,3.02978-10.998,0-.82911-.0415-1.49414Q364.988,227.5129,364.90592,226.84835Z"/><path id="g" class="cls-22" d="M334.85709,242.78585,307.29849,265.447c-7.748,13.39161-34.80371,41.39356-41.167,48.00684q-9.54639,9.91846-14.19433,9.91992-2.49024,0-2.49024-3.07129,0-5.97656,6.05957-15.27343a61.691,61.691,0,0,1,5.52-7.13868c2.0752-2.32421,24.03906-22.33105,25.89356-24.01855q2.78027-2.53272,7.34619-6.30859,4.56445-3.77784,6.22558-5.1875,8.29981-16.9336,11.95313-25.89844-7.80322,8.30127-13.61328,13.61328a65.917,65.917,0,0,1-10.66651,8.17578,17.63651,17.63651,0,0,1-8.75732,2.86426q-4.23341,0-7.80274-6.76465a29.45061,29.45061,0,0,1-3.56933-13.9043,17.98015,17.98015,0,0,1,1.53564-6.97265,34.35306,34.35306,0,0,1,4.81446-7.80274,62.72638,62.72638,0,0,1,8.34228-8.50781,89.9341,89.9341,0,0,1,11.87012-8.50879q12.86572-8.05078,20.00488-8.05176,5.31153,0,5.3125,3.90137,0,5.39649-11.53808,10.542a73.53621,73.53621,0,0,0-13.98682,8.13477,52.869,52.869,0,0,0-11.20606,10.75q-4.27587,5.68651-4.2749,10.251a5.4901,5.4901,0,0,0,1.0791,3.56934,3.46066,3.46066,0,0,0,2.82227,1.32813q2.90478,0,6.64062-2.65625a128.614,128.614,0,0,0,11.04-9.37989,99.04922,99.04922,0,0,0,8.84034-9.91894,136.681,136.681,0,0,1,9.13085-10.459q3.61085-3.6123,6.51612-3.61132a3.65572,3.65572,0,0,1,2.69775,1.0371,4.11027,4.11027,0,0,1,1.0376,3.03028q0,3.81885-3.02979,11.08105-3.03075,7.26563-10.91552,23.78223l20.08789-14.60938Z"/><path id="first-n" class="cls-22" d="M262.7233,222.19991q-14.61036,16.27-14.60938,22.66114,0,3.56982,2.90528,3.56933,2.40673,0,6.26709-2.53125,3.85986-2.53125,12.07763-9.00683v5.72754c-7.85839,7.748-14.89062,18.33691-19.0957,21.76757q-6.30908,5.14747-10.293,5.14649-6.80712,0-6.80664-8.96484a16.92939,16.92939,0,0,1,.83008-5.2295,34.49279,34.49279,0,0,1,2.28271-5.35449c.96778-1.85254,3.44873-9.50879,5.44092-12.96875q2.98828-5.18554,6.88965-11.74512-4.73145,2.4082-11.87012,9.5459a92.73765,92.73765,0,0,0-7.88574,8.50781q-3.2373,4.02832-6.93115,8.96485a70.15447,70.15447,0,0,1-5.39551,6.64062,4.9312,4.9312,0,0,1-3.44482,1.70215q-2.65724,0-4.89746-5.56152a34.48186,34.48186,0,0,1-2.24122-12.94922,19.65363,19.65363,0,0,1,1.0376-7.13867,47.77859,47.77859,0,0,1,4.10889-7.30469c3.81836-5.86523,15.11035-18.168,17.87793-20.9082q4.1499-4.10742,7.96875-4.1084a8.67914,8.67914,0,0,1,4.2749.91308,3.02432,3.02432,0,0,1,1.61865,2.82227,3.64572,3.64572,0,0,1-.498,1.74316,10.22306,10.22306,0,0,1-1.12061,1.66016q-.62256.74707-2.61474,2.90527c-8.74415,9.68457-21.11524,23.96582-21.11524,26.84278q0,2.4082,1.57715,2.40722.99609,0,3.85986-3.19531,2.86377-3.19482,7.3877-8.38476a134.979,134.979,0,0,1,10.708-10.832,115.48381,115.48381,0,0,1,14.06982-10.874q4.39893-3.0703,7.30469-3.07129,1.32714,0,2.61474,3.65235a22.10473,22.10473,0,0,1,1.28662,7.38769Q266.29263,218.465,262.7233,222.19991Z"/><path id="capital-A" class="cls-22" d="M217.95628,201.21819H143.93533a20.00837,20.00837,0,0,0-18.75417,12.95422L110.35338,253.762a3.4984,3.4984,0,0,1-3.27911,2.265h0a3.48177,3.48177,0,0,1-3.27706-4.69894L170.23827,74.83633a3.49845,3.49845,0,0,1,3.27706-2.25956h3.51033a3.49847,3.49847,0,0,1,3.27708,2.25958l74.44,198.49176c1.86,4.94091-2.77479,4.84544-3.77479,4.84544h0c-1.45893,0-2.27115-1.04657-2.78305-2.405l-26.95194-72.29192A3.49848,3.49848,0,0,0,217.95628,201.21819Zm-64.02549-6.80267h58.87933a3.4818,3.4818,0,0,0,3.279-4.69375L178.54519,89.50558a3.50614,3.50614,0,0,0-6.55683-.00319l-31.44559,83.72883C137.053,182.51886,143.95946,194.41552,153.93079,194.41552Z"/></g></g></svg>